#Comment line ignore any data following # character 
#Hierarchical Translation and Rotation (.htr) file 
[Header]	
#Header keywords are followed by a single value 
FileType HTR		#Single word string
DataType HTRS		#Translation followed by rotation and scale data
FileVersion 1		#integer
NumSegments 84		#integer
NumFrames 2		#integer
DataFrameRate 30		#integer, data frame rate in this file
EulerRotationOrder ZYX
CalibrationUnits mm
RotationUnits Degrees
GlobalAxisofGravity Y
BoneLengthAxis Y
ScaleFactor 1.00
[SegmentNames&Hierarchy]
#CHILD	PARENT
MASTER GLOBAL
root MASTER
chest root
L_mid_tent01 root
R_mid_tent01 root
spine01 root
Bip01_Neck chest
L_humerus chest
R_humerus chest
weapon_bone chest
Bip01_Head Bip01_Neck
eye_left_bone Bip01_Head
eye_right_bone Bip01_Head
L_forearm L_humerus
L_front_hand L_forearm
L_weapon_bone L_forearm
L_front_hand01_01 L_front_hand
L_front_hand02_01 L_front_hand
L_front_hand03_01 L_front_hand
L_front_hand01_02 L_front_hand01_01
L_front_hand02_02 L_front_hand02_01
L_front_hand03_02 L_front_hand03_01
R_forearm R_humerus
R_front_hand R_forearm
R_weapon_bone R_forearm
R_front_hand01_01 R_front_hand
R_front_hand02_01 R_front_hand
R_front_hand03_01 R_front_hand
R_front_hand01_02 R_front_hand01_01
R_front_hand02_02 R_front_hand02_01
R_front_hand03_02 R_front_hand03_01
null_rope01_connect L_mid_tent01
Rope1_Seg01 null_rope01_connect
Rope1_Seg02 Rope1_Seg01
Rope1_Seg03 Rope1_Seg02
Rope1_Seg04 Rope1_Seg03
Rope1_Seg05 Rope1_Seg04
Rope1_Seg06 Rope1_Seg05
Rope1_Seg07 Rope1_Seg06
Rope1_Seg09 Rope1_Seg07
L_mid_hand01 Rope1_Seg09
L_mid_hand02 Rope1_Seg09
L_mid_hand03 Rope1_Seg09
null_rope02_connect R_mid_tent01
Rope2_Seg01 null_rope02_connect
Rope2_Seg02 Rope2_Seg01
Rope2_Seg03 Rope2_Seg02
Rope2_Seg04 Rope2_Seg03
Rope2_Seg05 Rope2_Seg04
Rope2_Seg06 Rope2_Seg05
Rope2_Seg07 Rope2_Seg06
Rope2_Seg09 Rope2_Seg07
R_mid_hand01 Rope2_Seg09
R_mid_hand02 Rope2_Seg09
R_mid_hand03 Rope2_Seg09
spine02 spine01
spine03 spine02
pelvis spine03
null_rope03_connect pelvis
null_rope04_connect pelvis
Rope3_Seg01 null_rope03_connect
Rope3_Seg02 Rope3_Seg01
Rope3_Seg03 Rope3_Seg02
Rope3_Seg04 Rope3_Seg03
Rope3_Seg05 Rope3_Seg04
Rope3_Seg06 Rope3_Seg05
Rope3_Seg07 Rope3_Seg06
Rope3_Seg08 Rope3_Seg07
Rope3_Seg09 Rope3_Seg08
R_rear_hand01 Rope3_Seg09
R_rear_hand02 Rope3_Seg09
R_rear_hand03 Rope3_Seg09
Rope4_Seg01 null_rope04_connect
Rope4_Seg02 Rope4_Seg01
Rope4_Seg03 Rope4_Seg02
Rope4_Seg04 Rope4_Seg03
Rope4_Seg05 Rope4_Seg04
Rope4_Seg06 Rope4_Seg05
Rope4_Seg07 Rope4_Seg06
Rope4_Seg08 Rope4_Seg07
Rope4_Seg09 Rope4_Seg08
L_rear_hand01 Rope4_Seg09
L_rear_hand02 Rope4_Seg09
L_rear_hand03 Rope4_Seg09
[BasePosition]
#SegmentName Tx, Ty, Tz, Rx, Ry, Rz, BoneLength
MASTER 0.000000 0.000000 0.000000 -90.000000 0.000000 0.000000 10.000000 
root 0.000000 0.000000 0.000000 0.000000 0.000000 0.000000 10.000000 
chest 0.000000 0.000000 0.000000 0.000000 0.000000 0.000000 10.000000 
L_mid_tent01 0.000000 0.000000 0.000000 0.000000 0.000000 0.000000 10.000000 
R_mid_tent01 0.000000 0.000000 0.000000 0.000000 0.000000 0.000000 10.000000 
spine01 0.000000 0.000000 0.000000 0.000000 0.000000 0.000000 10.000000 
Bip01_Neck 0.000000 0.000000 0.000000 0.000000 0.000000 0.000000 10.000000 
L_humerus 0.000000 0.000000 0.000000 0.000000 0.000000 0.000000 10.000000 
R_humerus 0.000000 0.000000 0.000000 0.000000 0.000000 0.000000 10.000000 
weapon_bone 0.000000 0.000000 0.000000 0.000000 0.000000 0.000000 10.000000 
Bip01_Head 0.000000 0.000000 0.000000 0.000000 0.000000 0.000000 10.000000 
eye_left_bone 0.000000 0.000000 0.000000 0.000000 0.000000 0.000000 10.000000 
eye_right_bone 0.000000 0.000000 0.000000 0.000000 0.000000 0.000000 10.000000 
L_forearm 0.000000 0.000000 0.000000 0.000000 0.000000 0.000000 10.000000 
L_front_hand 0.000000 0.000000 0.000000 0.000000 0.000000 0.000000 10.000000 
L_weapon_bone 0.000000 0.000000 0.000000 0.000000 0.000000 0.000000 10.000000 
L_front_hand01_01 0.000000 0.000000 0.000000 0.000000 0.000000 0.000000 10.000000 
L_front_hand02_01 0.000000 0.000000 0.000000 0.000000 0.000000 0.000000 10.000000 
L_front_hand03_01 0.000000 0.000000 0.000000 0.000000 0.000000 0.000000 10.000000 
L_front_hand01_02 0.000000 0.000000 0.000000 0.000000 0.000000 0.000000 10.000000 
L_front_hand02_02 0.000000 0.000000 0.000000 0.000000 0.000000 0.000000 10.000000 
L_front_hand03_02 0.000000 0.000000 0.000000 0.000000 0.000000 0.000000 10.000000 
R_forearm 0.000000 0.000000 0.000000 0.000000 0.000000 0.000000 10.000000 
R_front_hand 0.000000 0.000000 0.000000 0.000000 0.000000 0.000000 10.000000 
R_weapon_bone 0.000000 0.000000 0.000000 0.000000 0.000000 0.000000 10.000000 
R_front_hand01_01 0.000000 0.000000 0.000000 0.000000 0.000000 0.000000 10.000000 
R_front_hand02_01 0.000000 0.000000 0.000000 0.000000 0.000000 0.000000 10.000000 
R_front_hand03_01 0.000000 0.000000 0.000000 0.000000 0.000000 0.000000 10.000000 
R_front_hand01_02 0.000000 0.000000 0.000000 0.000000 0.000000 0.000000 10.000000 
R_front_hand02_02 0.000000 0.000000 0.000000 0.000000 0.000000 0.000000 10.000000 
R_front_hand03_02 0.000000 0.000000 0.000000 0.000000 0.000000 0.000000 10.000000 
null_rope01_connect 0.000000 0.000000 0.000000 0.000000 0.000000 0.000000 10.000000 
Rope1_Seg01 0.000000 0.000000 0.000000 0.000000 0.000000 0.000000 10.000000 
Rope1_Seg02 0.000000 0.000000 0.000000 0.000000 0.000000 0.000000 10.000000 
Rope1_Seg03 0.000000 0.000000 0.000000 0.000000 0.000000 0.000000 10.000000 
Rope1_Seg04 0.000000 0.000000 0.000000 0.000000 0.000000 0.000000 10.000000 
Rope1_Seg05 0.000000 0.000000 0.000000 0.000000 0.000000 0.000000 10.000000 
Rope1_Seg06 0.000000 0.000000 0.000000 0.000000 0.000000 0.000000 10.000000 
Rope1_Seg07 0.000000 0.000000 0.000000 0.000000 0.000000 0.000000 10.000000 
Rope1_Seg09 0.000000 0.000000 0.000000 0.000000 0.000000 0.000000 10.000000 
L_mid_hand01 0.000000 0.000000 0.000000 0.000000 0.000000 0.000000 10.000000 
L_mid_hand02 0.000000 0.000000 0.000000 0.000000 0.000000 0.000000 10.000000 
L_mid_hand03 0.000000 0.000000 0.000000 0.000000 0.000000 0.000000 10.000000 
null_rope02_connect 0.000000 0.000000 0.000000 0.000000 0.000000 0.000000 10.000000 
Rope2_Seg01 0.000000 0.000000 0.000000 0.000000 0.000000 0.000000 10.000000 
Rope2_Seg02 0.000000 0.000000 0.000000 0.000000 0.000000 0.000000 10.000000 
Rope2_Seg03 0.000000 0.000000 0.000000 0.000000 0.000000 0.000000 10.000000 
Rope2_Seg04 0.000000 0.000000 0.000000 0.000000 0.000000 0.000000 10.000000 
Rope2_Seg05 0.000000 0.000000 0.000000 0.000000 0.000000 0.000000 10.000000 
Rope2_Seg06 0.000000 0.000000 0.000000 0.000000 0.000000 0.000000 10.000000 
Rope2_Seg07 0.000000 0.000000 0.000000 0.000000 0.000000 0.000000 10.000000 
Rope2_Seg09 0.000000 0.000000 0.000000 0.000000 0.000000 0.000000 10.000000 
R_mid_hand01 0.000000 0.000000 0.000000 0.000000 0.000000 0.000000 10.000000 
R_mid_hand02 0.000000 0.000000 0.000000 0.000000 0.000000 0.000000 10.000000 
R_mid_hand03 0.000000 0.000000 0.000000 0.000000 0.000000 0.000000 10.000000 
spine02 0.000000 0.000000 0.000000 0.000000 0.000000 0.000000 10.000000 
spine03 0.000000 0.000000 0.000000 0.000000 0.000000 0.000000 10.000000 
pelvis 0.000000 0.000000 0.000000 0.000000 0.000000 0.000000 10.000000 
null_rope03_connect 0.000000 0.000000 0.000000 0.000000 0.000000 0.000000 10.000000 
null_rope04_connect 0.000000 0.000000 0.000000 0.000000 0.000000 0.000000 10.000000 
Rope3_Seg01 0.000000 0.000000 0.000000 0.000000 0.000000 0.000000 10.000000 
Rope3_Seg02 0.000000 0.000000 0.000000 0.000000 0.000000 0.000000 10.000000 
Rope3_Seg03 0.000000 0.000000 0.000000 0.000000 0.000000 0.000000 10.000000 
Rope3_Seg04 0.000000 0.000000 0.000000 0.000000 0.000000 0.000000 10.000000 
Rope3_Seg05 0.000000 0.000000 0.000000 0.000000 0.000000 0.000000 10.000000 
Rope3_Seg06 0.000000 0.000000 0.000000 0.000000 0.000000 0.000000 10.000000 
Rope3_Seg07 0.000000 0.000000 0.000000 0.000000 0.000000 0.000000 10.000000 
Rope3_Seg08 0.000000 0.000000 0.000000 0.000000 0.000000 0.000000 10.000000 
Rope3_Seg09 0.000000 0.000000 0.000000 0.000000 0.000000 0.000000 10.000000 
R_rear_hand01 0.000000 0.000000 0.000000 0.000000 0.000000 0.000000 10.000000 
R_rear_hand02 0.000000 0.000000 0.000000 0.000000 0.000000 0.000000 10.000000 
R_rear_hand03 0.000000 0.000000 0.000000 0.000000 0.000000 0.000000 10.000000 
Rope4_Seg01 0.000000 0.000000 0.000000 0.000000 0.000000 0.000000 10.000000 
Rope4_Seg02 0.000000 0.000000 0.000000 0.000000 0.000000 0.000000 10.000000 
Rope4_Seg03 0.000000 0.000000 0.000000 0.000000 0.000000 0.000000 10.000000 
Rope4_Seg04 0.000000 0.000000 0.000000 0.000000 0.000000 0.000000 10.000000 
Rope4_Seg05 0.000000 0.000000 0.000000 0.000000 0.000000 0.000000 10.000000 
Rope4_Seg06 0.000000 0.000000 0.000000 0.000000 0.000000 0.000000 10.000000 
Rope4_Seg07 0.000000 0.000000 0.000000 0.000000 0.000000 0.000000 10.000000 
Rope4_Seg08 0.000000 0.000000 0.000000 0.000000 0.000000 0.000000 10.000000 
Rope4_Seg09 0.000000 0.000000 0.000000 0.000000 0.000000 0.000000 10.000000 
L_rear_hand01 0.000000 0.000000 0.000000 0.000000 0.000000 0.000000 10.000000 
L_rear_hand02 0.000000 0.000000 0.000000 0.000000 0.000000 0.000000 10.000000 
L_rear_hand03 0.000000 0.000000 0.000000 0.000000 0.000000 0.000000 10.000000 
#Beginning of Data. Separated by tabs
#Fr	Tx	Ty	Tz	Rx	Ry	Rz	SF
[MASTER]
17 0.000000 0.000000 0.000000 0.001660 0.001660 0.001660 0.000000
18 0.000000 0.000000 0.000000 0.001660 0.001660 0.001660 0.000000
[root]
17 -34.192993 -55.147781 1502.169189 -111.256676 -33.560349 -88.712379 1503.569946
18 -33.330173 -55.415768 1502.063354 -100.003586 -37.292343 -87.717926 1503.454712
[chest]
17 -84.512650 -34.090519 0.000000 -8.753019 7.615041 172.261642 91.129311
18 -84.512650 -34.090519 0.000000 -7.284559 4.019416 178.140656 91.129311
[L_mid_tent01]
17 27.299162 22.179106 -249.918716 2.558687 9.904499 79.453926 252.381699
18 27.299166 22.179106 -249.918716 2.641546 12.448442 79.598854 252.381699
[R_mid_tent01]
17 23.228794 24.509907 226.238495 165.887115 -16.768080 76.510353 228.744751
18 23.228794 24.509907 226.238495 165.633270 -20.592365 77.615433 228.744751
[spine01]
17 -0.361383 -0.195265 0.000000 0.002062 0.001122 32.879829 0.410763
18 -0.361383 -0.195265 0.000000 0.002062 0.001122 32.879829 0.410763
[Bip01_Neck]
17 165.484543 71.581718 0.000119 176.643677 -1.657967 43.431911 180.302734
18 165.484543 71.581718 0.000119 176.643677 -1.657967 43.431911 180.302734
[L_humerus]
17 -13.983130 -135.272980 -120.471481 166.204529 37.576893 -79.109474 181.680161
18 -13.983130 -135.272980 -120.471481 166.841690 44.496552 -83.622734 181.680161
[R_humerus]
17 -13.983309 -135.273102 125.287651 -170.231018 -16.917057 -101.583282 184.909012
18 -13.983309 -135.273102 125.287651 -168.805557 -22.085096 -103.532455 184.909012
[weapon_bone]
17 235.964890 -300.705902 0.000000 0.000000 -89.951546 -128.212341 382.234833
18 235.964890 -300.705902 0.000000 0.000000 -89.951546 -128.212341 382.234833
[Bip01_Head]
17 213.444260 185.715576 11.776939 16.404346 3.094338 -43.893074 283.173828
18 213.444275 185.715576 11.776939 14.292571 3.118210 -43.891926 283.173859
[eye_left_bone]
17 -24.626970 125.451866 -64.772606 0.000000 -90.000000 -99.840431 143.318359
18 -24.626970 125.451866 -64.772606 0.000000 -90.000000 -99.840431 143.318359
[eye_right_bone]
17 -24.626970 125.451866 64.327362 0.000000 -89.965736 80.156380 143.117676
18 -24.626970 125.451866 64.327362 0.000000 -89.965736 80.156380 143.117676
[L_forearm]
17 322.776093 0.000000 -0.000119 0.000396 -0.002314 -109.419975 322.776093
18 322.776093 0.000000 -0.000119 0.000396 -0.002314 -109.419975 322.776093
[L_front_hand]
17 241.149185 -0.042021 -3.300071 -178.667953 -1.835447 -27.422350 241.171753
18 241.149185 -0.042021 -3.300071 -178.667953 -1.835447 -27.422342 241.171753
[L_weapon_bone]
17 156.183838 0.000000 0.000000 0.000014 0.000007 0.000001 156.183838
18 156.183838 0.000000 0.000000 0.000014 0.000007 0.000001 156.183838
[L_front_hand01_01]
17 86.095154 20.947098 -0.655860 -0.288452 -0.524465 66.469116 88.609184
18 86.095154 20.947098 -0.655860 -0.291078 -0.523013 67.043625 88.609184
[L_front_hand02_01]
17 86.935165 -11.437475 24.513514 142.422440 -55.185452 -47.201672 91.046425
18 86.935165 -11.437475 24.513514 143.078323 -55.530476 -48.002373 91.046425
[L_front_hand03_01]
17 86.637497 -14.123976 -20.424902 -142.734726 53.410057 -49.207283 90.126129
18 86.637497 -14.123976 -20.424902 -143.356354 53.754330 -49.985222 90.126129
[L_front_hand01_02]
17 71.020905 -0.000179 0.000030 0.000315 -0.002326 -105.437843 71.020905
18 71.020905 -0.000179 0.000030 0.000316 -0.002326 -105.462692 71.020905
[L_front_hand02_02]
17 71.020927 -0.000119 0.000060 0.000315 -0.002326 -105.437843 71.020927
18 71.020927 -0.000119 0.000060 0.000316 -0.002326 -105.462692 71.020927
[L_front_hand03_02]
17 71.020905 -0.000060 0.000060 0.000315 -0.002326 -105.437843 71.020905
18 71.020905 -0.000060 0.000060 0.000316 -0.002326 -105.462692 71.020905
[R_forearm]
17 322.776428 -0.000060 0.000030 0.202103 0.065158 -108.062805 322.776428
18 322.776428 -0.000060 0.000030 0.202103 0.065158 -108.062805 322.776428
[R_front_hand]
17 238.847015 -0.006795 2.210259 -2.635298 -10.645461 -26.312506 238.857239
18 238.847015 -0.006795 2.210259 -2.635298 -10.645461 -26.312506 238.857239
[R_weapon_bone]
17 155.664093 0.002503 -0.000030 0.003487 0.001180 -90.988930 155.664078
18 155.664093 0.002503 -0.000030 0.003487 0.001180 -90.988930 155.664078
[R_front_hand01_01]
17 87.624611 14.231146 22.918642 -140.869598 -54.308796 45.406185 91.683487
18 87.624611 14.231146 22.918642 -142.548325 -55.243759 47.459801 91.683487
[R_front_hand02_01]
17 89.356956 14.367283 -19.491137 141.602859 52.728157 48.028049 92.579636
18 89.356956 14.367283 -19.491137 143.200836 53.651726 50.025181 92.579636
[R_front_hand03_01]
17 87.286232 -22.307278 -0.143439 0.081591 -0.445045 -65.308601 90.091743
18 87.286232 -22.307278 -0.143439 0.094300 -0.445337 -66.818878 90.091743
[R_front_hand01_02]
17 71.020905 0.000060 0.000119 0.002323 -0.000334 106.381714 71.020905
18 71.020905 0.000060 0.000119 0.002323 -0.000334 106.381714 71.020905
[R_front_hand02_02]
17 71.020844 -0.000030 -0.000119 0.002323 -0.000334 106.381714 71.020836
18 71.020844 -0.000030 -0.000119 0.002323 -0.000334 106.381714 71.020836
[R_front_hand03_02]
17 71.020905 0.000000 0.000030 0.002323 -0.000334 106.381714 71.020905
18 71.020905 0.000000 0.000030 0.002323 -0.000334 106.381714 71.020905
[null_rope01_connect]
17 328.732483 0.000000 -0.000238 -139.639969 -60.037514 -174.936386 328.732483
18 328.732483 0.000000 -0.000238 -133.748322 -69.416565 -177.557861 328.732483
[Rope1_Seg01]
17 -0.000027 0.000016 0.000062 -142.156815 27.255714 -120.637466 0.000069
18 -0.000026 0.000014 0.000057 73.972466 23.152956 -120.765503 0.000064
[Rope1_Seg02]
17 139.999863 -0.000179 0.000000 21.007404 -4.462523 1.147197 139.999863
18 139.999863 -0.000179 0.000000 167.974167 5.339583 -8.677738 139.999863
[Rope1_Seg03]
17 139.999924 0.000060 -0.000060 -3.053281 -5.471547 7.329321 139.999924
18 139.999924 0.000060 -0.000060 -6.388192 -12.169466 17.722548 139.999924
[Rope1_Seg04]
17 139.999924 -0.000060 -0.000119 24.732435 -12.152410 -2.427874 139.999924
18 139.999924 -0.000060 -0.000119 21.489370 -21.791059 -3.398250 139.999924
[Rope1_Seg05]
17 139.999832 0.000119 -0.000060 21.211832 -11.314150 -5.020620 139.999832
18 139.999832 0.000119 -0.000060 8.200852 -15.532869 0.652823 139.999832
[Rope1_Seg06]
17 139.999954 0.000119 -0.000060 5.749327 -5.971516 0.658565 139.999954
18 139.999954 0.000119 -0.000060 1.732172 -5.658502 1.560270 139.999954
[Rope1_Seg07]
17 139.999985 0.000060 0.000000 1.616531 -2.017668 0.433262 139.999985
18 139.999985 0.000060 0.000000 0.075659 -0.260516 0.080616 139.999985
[Rope1_Seg09]
17 121.602913 0.000119 -0.000089 -89.793175 -1.359789 0.847147 121.602913
18 121.602913 0.000119 -0.000089 -89.793175 -1.359789 0.847147 121.602913
[L_mid_hand01]
17 103.859421 1.038730 8.195221 130.544373 -67.584534 -38.866943 104.187431
18 103.859421 1.038730 8.195221 130.544403 -67.584549 -38.866970 104.187431
[L_mid_hand02]
17 105.572853 -4.139662 -10.864139 -168.923172 43.409309 -73.498886 106.211075
18 105.572853 -4.139662 -10.864139 -168.923172 43.409309 -73.498894 106.211075
[L_mid_hand03]
17 104.641464 17.579376 -3.913581 -6.012627 17.808174 74.893669 106.179977
18 104.641464 17.579376 -3.913581 -6.012627 17.808174 74.893669 106.179977
[null_rope02_connect]
17 328.732849 0.000179 -0.000119 -35.193169 69.917610 98.777580 328.732849
18 328.732849 0.000179 -0.000119 -74.848938 68.133156 54.377071 328.732849
[Rope2_Seg01]
17 -0.000059 0.000099 0.000000 170.301422 63.138489 -68.443443 0.000115
18 -0.000068 0.000098 0.000000 -138.791031 52.944389 -32.373871 0.000119
[Rope2_Seg02]
17 139.999741 -0.000060 -0.000119 -3.511608 -4.082191 6.487391 139.999756
18 139.999741 -0.000060 -0.000119 -7.731709 -2.033701 7.734971 139.999756
[Rope2_Seg03]
17 140.000107 0.000030 0.000000 -4.293706 -10.621110 11.837108 140.000107
18 140.000107 0.000030 0.000000 -9.879331 -6.780188 14.767036 140.000107
[Rope2_Seg04]
17 139.999802 0.000000 -0.000060 -5.595795 -15.758372 24.157417 139.999802
18 139.999802 0.000000 -0.000060 -10.713224 -17.472939 27.592543 139.999802
[Rope2_Seg05]
17 139.999985 -0.000060 0.000119 3.215054 8.103173 21.394979 139.999985
18 139.999985 -0.000060 0.000119 -1.081728 0.791773 23.433310 139.999985
[Rope2_Seg06]
17 139.999893 -0.000030 -0.000119 1.277493 2.060597 10.948859 139.999893
18 139.999893 -0.000030 -0.000119 1.079540 -0.295211 15.522116 139.999893
[Rope2_Seg07]
17 139.999893 0.000060 -0.000060 0.641377 0.964622 4.835724 139.999893
18 139.999893 0.000060 -0.000060 1.074115 -0.495868 7.589653 139.999893
[Rope2_Seg09]
17 121.338966 0.000089 -0.000060 33.793236 -1.359788 -0.847141 121.338966
18 121.338966 0.000089 -0.000060 33.793236 -1.359788 -0.847141 121.338966
[R_mid_hand01]
17 104.680779 11.144459 -10.335981 -21.475075 43.398643 62.933384 105.778534
18 104.680779 11.144459 -10.335981 -17.730881 44.774300 68.314194 105.778534
[R_mid_hand02]
17 104.070427 2.443552 8.231699 56.616344 -63.208527 30.998726 104.424065
18 104.070427 2.443552 8.231699 51.489174 -66.527618 36.661942 104.424065
[R_mid_hand03]
17 106.028137 -11.221827 -5.996406 -175.535004 15.186026 -70.697296 106.788818
18 106.028137 -11.221827 -5.996406 -176.658157 15.462622 -74.935074 106.788818
[spine02]
17 129.756927 0.001550 0.000119 0.360061 -4.044797 -12.915058 129.756927
18 129.756927 0.001550 0.000119 0.360061 -4.044797 -12.915058 129.756927
[spine03]
17 78.614067 0.081635 -4.899012 1.896495 3.831288 16.473045 78.766602
18 78.614067 0.081635 -4.899012 1.896495 3.831288 16.473045 78.766602
[pelvis]
17 169.435242 0.051022 0.000000 -0.060465 -0.180225 14.087930 169.435257
18 169.435242 0.051022 0.000000 -0.060465 -0.180225 14.087930 169.435257
[null_rope03_connect]
17 -1.257226 -2.466202 137.391083 -148.365814 -70.513710 -138.330597 137.418976
18 -1.257226 -2.466202 137.391083 -153.405380 -82.313492 -129.652496 137.418976
[null_rope04_connect]
17 -1.259640 -2.480268 -137.844437 -148.365814 -70.513710 -138.330597 137.872513
18 -1.259640 -2.480268 -137.844437 -153.405380 -82.313492 -129.652496 137.872513
[Rope3_Seg01]
17 0.000010 0.000016 -0.000062 -127.408836 -9.686026 -95.044968 0.000065
18 0.000010 0.000014 -0.000057 -129.686203 -22.565222 -83.480659 0.000059
[Rope3_Seg02]
17 139.999924 -0.000119 0.000060 -7.581650 -5.536579 21.523968 139.999924
18 139.999924 -0.000119 0.000060 -2.936574 -14.222885 17.437197 139.999924
[Rope3_Seg03]
17 139.999924 -0.000119 0.000119 -3.463776 -1.672386 7.772746 139.999924
18 139.999924 -0.000119 0.000119 -0.809000 -4.629121 4.733081 139.999924
[Rope3_Seg04]
17 139.999924 0.000119 0.000000 -3.217311 -3.230495 3.547752 139.999924
18 139.999924 0.000119 0.000000 -1.961267 -6.098085 8.673633 139.999924
[Rope3_Seg05]
17 139.999924 -0.000238 0.000060 -3.372783 -4.898814 2.023004 139.999924
18 139.999924 -0.000238 0.000060 -2.666190 -6.368962 9.166932 139.999924
[Rope3_Seg06]
17 139.999893 -0.000119 -0.000060 -2.232255 -3.942596 1.489160 139.999893
18 139.999893 -0.000119 -0.000060 -1.236562 -3.587609 4.589165 139.999893
[Rope3_Seg07]
17 139.999771 0.000060 -0.000119 -1.328247 -2.739764 1.201041 139.999771
18 139.999771 0.000060 -0.000119 -0.715283 -2.537105 3.099847 139.999771
[Rope3_Seg08]
17 139.999985 -0.000060 0.000000 -0.689047 -1.902826 0.784754 139.999985
18 139.999985 -0.000060 0.000000 -0.268649 -1.636028 1.954392 139.999985
[Rope3_Seg09]
17 90.185997 -0.000179 -0.000060 89.793228 -1.359877 -0.847183 90.185997
18 90.185997 -0.000179 -0.000060 89.793228 -1.359877 -0.847183 90.185997
[R_rear_hand01]
17 103.366196 -6.073594 -10.757982 -175.487595 24.273657 -68.532684 104.101845
18 103.366196 -6.073594 -10.757982 -177.096985 24.502602 -72.429993 104.101845
[R_rear_hand02]
17 100.509819 12.039542 -7.992327 -16.360678 35.627857 66.274040 101.543350
18 100.509819 12.039542 -7.992327 -13.853953 36.558491 70.530396 101.543350
[R_rear_hand03]
17 101.539970 5.215704 5.435467 75.232681 -67.112556 17.511589 101.819031
18 101.539970 5.215704 5.435467 72.714325 -70.534576 20.214462 101.819031
[Rope4_Seg01]
17 0.000010 0.000038 -0.000114 70.084251 -26.709570 -147.624161 0.000121
18 0.000010 0.000038 -0.000114 74.862694 -30.728960 -148.352631 0.000121
[Rope4_Seg02]
17 139.999985 0.000060 0.000119 -18.749990 23.941002 -14.381638 139.999985
18 139.999985 0.000060 0.000119 -18.057356 22.445030 -13.634376 139.999985
[Rope4_Seg03]
17 139.999924 0.000000 -0.000238 -6.581377 29.063972 -7.039862 139.999924
18 139.999924 0.000000 -0.000238 -8.389039 33.967014 -9.343735 139.999924
[Rope4_Seg04]
17 139.999985 0.000000 0.000119 0.604312 18.596897 -1.798859 139.999985
18 139.999985 0.000000 0.000119 1.452905 21.922119 -2.367112 139.999985
[Rope4_Seg05]
17 139.999802 -0.000060 -0.000119 1.047102 4.993151 -2.027096 139.999802
18 139.999802 -0.000060 -0.000119 2.001018 7.228730 -2.484123 139.999802
[Rope4_Seg06]
17 139.999924 0.000000 0.000060 0.851085 -0.500170 -3.044123 139.999924
18 139.999924 0.000000 0.000060 2.193340 3.182841 -3.793005 139.999924
[Rope4_Seg07]
17 139.999802 0.000000 0.000000 0.853757 -1.272582 -3.648784 139.999802
18 139.999802 0.000000 0.000000 2.714721 3.272578 -4.707936 139.999802
[Rope4_Seg08]
17 139.999924 0.000000 0.000119 -0.906390 0.808095 -2.492745 139.999924
18 139.999924 0.000000 0.000119 0.755075 3.473290 -3.395068 139.999924
[Rope4_Seg09]
17 90.185791 0.000060 0.000060 -135.617828 2.228885 0.850567 90.185791
18 90.185791 0.000060 0.000060 -135.617828 2.228885 0.850567 90.185791
[L_rear_hand01]
17 101.696655 -8.392275 -7.654577 -12.874829 -36.868488 107.832764 102.329041
18 101.696655 -8.392275 -7.654577 -12.874829 -36.868488 107.832764 102.329041
[L_rear_hand02]
17 102.726799 -1.568258 5.773216 71.484581 71.816628 158.486160 102.900848
18 102.726799 -1.568258 5.773216 71.484581 71.816628 158.486160 102.900848
[L_rear_hand03]
17 104.552910 9.721220 -10.420293 -177.714203 -24.565960 -106.089035 105.519653
18 104.552910 9.721220 -10.420293 -177.714203 -24.565960 -106.089035 105.519653
